<?xml version="1.0" encoding="utf-8"?>
<!-- Generator: Adobe Illustrator 21.1.0, SVG Export Plug-In . SVG Version: 6.00 Build 0)  -->
<svg version="1.1" id="Layer_1" xmlns="http://www.w3.org/2000/svg" xmlns:xlink="http://www.w3.org/1999/xlink" x="0px" y="0px"
	 viewBox="0 0 153.6 36" style="enable-background:new 0 0 153.6 36;" xml:space="preserve">
<style type="text/css">
	.st0{fill:url(#SVGID_1_);}
	.st1{fill:url(#SVGID_2_);}
	.st2{fill:url(#SVGID_3_);}
	.st3{fill:url(#SVGID_4_);}
	.st4{fill:url(#SVGID_5_);}
	.st5{fill:url(#SVGID_6_);}
	.st6{fill:url(#SVGID_7_);}
	.st7{fill:#03A9F3;}
</style>
<g>
	<linearGradient id="SVGID_1_" gradientUnits="userSpaceOnUse" x1="42.2375" y1="-3.883" x2="42.2375" y2="27.4817">
		<stop  offset="0" style="stop-color:#14B8C8"/>
		<stop  offset="1" style="stop-color:#17C8C0"/>
	</linearGradient>
	<path class="st0" d="M49.2,1.2h4.4l-9.1,26H40l-9.1-26h4.4l5.4,16.2c0.3,0.8,0.6,1.8,0.9,3c0.3,1.2,0.5,2.1,0.6,2.7
		c0.2-0.9,0.4-1.9,0.7-3.1c0.3-1.2,0.6-2.1,0.8-2.6L49.2,1.2z"/>
	<linearGradient id="SVGID_2_" gradientUnits="userSpaceOnUse" x1="58.6538" y1="-3.883" x2="58.6538" y2="27.4817">
		<stop  offset="0" style="stop-color:#14B8C8"/>
		<stop  offset="1" style="stop-color:#17C8C0"/>
	</linearGradient>
	<path class="st1" d="M56.3,2.3c0-0.7,0.2-1.3,0.6-1.7s1-0.6,1.8-0.6c0.7,0,1.3,0.2,1.7,0.6C60.8,1,61,1.6,61,2.3
		C61,3,60.8,3.6,60.4,4c-0.4,0.4-1,0.6-1.7,0.6c-0.8,0-1.3-0.2-1.8-0.6S56.3,3,56.3,2.3z M60.7,27.2h-4.2V7.5h4.2V27.2z"/>
	<linearGradient id="SVGID_3_" gradientUnits="userSpaceOnUse" x1="73.0604" y1="-3.883" x2="73.0604" y2="27.4817">
		<stop  offset="0" style="stop-color:#14B8C8"/>
		<stop  offset="1" style="stop-color:#17C8C0"/>
	</linearGradient>
	<path class="st2" d="M74.6,27.6c-3,0-5.2-0.9-6.8-2.6c-1.5-1.7-2.3-4.2-2.3-7.5c0-3.3,0.8-5.9,2.4-7.6c1.6-1.8,4-2.7,7-2.7
		c2.1,0,3.9,0.4,5.6,1.2l-1.3,3.4c-1.8-0.7-3.2-1-4.4-1c-3.4,0-5.1,2.3-5.1,6.8c0,2.2,0.4,3.9,1.3,5c0.8,1.1,2.1,1.7,3.7,1.7
		c1.9,0,3.6-0.5,5.3-1.4v3.6c-0.7,0.4-1.5,0.8-2.4,0.9C76.9,27.5,75.9,27.6,74.6,27.6z"/>
	<linearGradient id="SVGID_4_" gradientUnits="userSpaceOnUse" x1="88.7922" y1="-3.883" x2="88.7922" y2="27.4817">
		<stop  offset="0" style="stop-color:#14B8C8"/>
		<stop  offset="1" style="stop-color:#17C8C0"/>
	</linearGradient>
	<path class="st3" d="M92.1,24.2c1,0,2-0.2,3.1-0.5v3.1c-0.5,0.2-1.1,0.4-1.8,0.5c-0.7,0.1-1.5,0.2-2.3,0.2c-4,0-5.9-2.1-5.9-6.3
		V10.7h-2.7V8.9l2.9-1.5l1.4-4.2h2.6v4.4h5.6v3.2h-5.6v10.5c0,1,0.3,1.8,0.8,2.2C90.6,23.9,91.3,24.2,92.1,24.2z"/>
	<linearGradient id="SVGID_5_" gradientUnits="userSpaceOnUse" x1="107.2013" y1="-3.883" x2="107.2013" y2="27.4817">
		<stop  offset="0" style="stop-color:#14B8C8"/>
		<stop  offset="1" style="stop-color:#17C8C0"/>
	</linearGradient>
	<path class="st4" d="M116.5,17.3c0,3.2-0.8,5.7-2.5,7.5c-1.6,1.8-3.9,2.7-6.9,2.7c-1.8,0-3.5-0.4-4.9-1.2c-1.4-0.8-2.5-2-3.3-3.6
		c-0.8-1.6-1.1-3.4-1.1-5.4c0-3.2,0.8-5.7,2.5-7.5c1.6-1.8,3.9-2.7,6.9-2.7c2.8,0,5.1,0.9,6.8,2.7C115.7,11.8,116.5,14.2,116.5,17.3
		z M102.2,17.3c0,4.5,1.7,6.8,5,6.8c3.3,0,5-2.3,5-6.8c0-4.5-1.7-6.7-5-6.7c-1.8,0-3,0.6-3.8,1.7S102.2,15.2,102.2,17.3z"/>
	<linearGradient id="SVGID_6_" gradientUnits="userSpaceOnUse" x1="127.3442" y1="-3.883" x2="127.3442" y2="27.4817">
		<stop  offset="0" style="stop-color:#14B8C8"/>
		<stop  offset="1" style="stop-color:#17C8C0"/>
	</linearGradient>
	<path class="st5" d="M131.3,7.2c0.8,0,1.5,0.1,2.1,0.2l-0.4,3.9c-0.6-0.1-1.2-0.2-1.8-0.2c-1.7,0-3,0.5-4.1,1.6
		c-1,1.1-1.6,2.5-1.6,4.3v10.3h-4.2V7.5h3.3l0.6,3.5h0.2c0.7-1.2,1.5-2.1,2.6-2.8C129,7.5,130.1,7.2,131.3,7.2z"/>
	<linearGradient id="SVGID_7_" gradientUnits="userSpaceOnUse" x1="143.7962" y1="-3.883" x2="143.7962" y2="27.4817">
		<stop  offset="0" style="stop-color:#14B8C8"/>
		<stop  offset="1" style="stop-color:#17C8C0"/>
	</linearGradient>
	<path class="st6" d="M134,7.5h4.6l4,11.2c0.6,1.6,1,3.1,1.2,4.5h0.1c0.1-0.7,0.3-1.4,0.6-2.4c0.3-0.9,1.8-5.3,4.5-13.3h4.5
		l-8.4,22.3c-1.5,4.1-4.1,6.1-7.6,6.1c-0.9,0-1.8-0.1-2.7-0.3v-3.3c0.6,0.1,1.3,0.2,2.2,0.2c2,0,3.4-1.2,4.3-3.5l0.7-1.8L134,7.5z"
		/>
</g>
<g>
	<path class="st7" d="M22,13.7c0.2,0.2,0.3,0.4,0.3,0.7c0,0.5-0.1,0.9-0.4,1.3s-0.8,0.6-1.4,0.6c-1.5,0-2.9-0.1-4-0.3
		c-1.3,2.8-3,5.2-4.9,7c-1.9,1.9-3.8,2.8-5.7,2.8c-2,0-3.4-1.1-4.4-3.4C0.5,20.1,0,17,0,13.1c0-3.3,0.2-6.3,0.7-9
		c0.2-1,0.4-1.7,0.7-2C1.7,1.7,2.3,1.5,3,1.5c1.3,0,1.9,0.5,1.9,1.6c0,0.1,0,0.3-0.1,0.6C4.3,7.2,4,10.3,4,13.1
		c0,2.9,0.2,5.1,0.7,6.6c0.5,1.5,1.2,2.3,2.2,2.3c1,0,2.1-0.7,3.2-2c1.2-1.4,2.2-3.1,3.2-5.1c-1.2-0.7-2-1.7-2.6-2.8
		c-0.6-1.1-0.9-2.5-0.9-4c0-1.5,0.2-2.8,0.7-3.8c0.5-1,1.1-1.8,1.9-2.3c0.8-0.5,1.7-0.8,2.7-0.8c1.2,0,2.2,0.4,2.9,1.3S19,4.5,19,6
		c0,2.2-0.5,4.6-1.4,7.1c1,0.2,2.2,0.3,3.4,0.3C21.5,13.4,21.8,13.5,22,13.7z M14.5,11.9c0.7-2.1,1.1-3.9,1.1-5.3
		c0-0.8-0.1-1.4-0.3-1.7c-0.2-0.4-0.5-0.6-0.9-0.6c-0.5,0-0.9,0.3-1.3,0.9c-0.3,0.6-0.5,1.4-0.5,2.5C12.7,9.6,13.3,11,14.5,11.9z"/>
</g>
</svg>
