<?xml version="1.0" encoding="utf-8"?>
<!-- Generator: Adobe Illustrator 21.1.0, SVG Export Plug-In . SVG Version: 6.00 Build 0)  -->
<svg version="1.1" id="Layer_1" xmlns="http://www.w3.org/2000/svg" xmlns:xlink="http://www.w3.org/1999/xlink" x="0px" y="0px"
	 viewBox="0 0 22.3 24.7" style="enable-background:new 0 0 22.3 24.7;" xml:space="preserve">
<style type="text/css">
	.st0{fill:#03A9F3;}
</style>
<g>
	<path class="st0" d="M22,12.6c0.2,0.2,0.3,0.4,0.3,0.7c0,0.5-0.1,0.9-0.4,1.3s-0.8,0.6-1.4,0.6c-1.5,0-2.9-0.1-4-0.3
		c-1.3,2.8-3,5.2-4.9,7c-1.9,1.9-3.8,2.8-5.7,2.8c-2,0-3.4-1.1-4.4-3.4C0.5,19,0,15.9,0,12c0-3.3,0.2-6.3,0.7-9c0.2-1,0.4-1.7,0.7-2
		C1.7,0.6,2.3,0.5,3,0.5c1.3,0,1.9,0.5,1.9,1.6c0,0.1,0,0.3-0.1,0.6C4.3,6.1,4,9.2,4,12c0,2.9,0.2,5.1,0.7,6.6
		c0.5,1.5,1.2,2.3,2.2,2.3c1,0,2.1-0.7,3.2-2c1.2-1.4,2.2-3.1,3.2-5.1c-1.2-0.7-2-1.7-2.6-2.8c-0.6-1.1-0.9-2.5-0.9-4
		c0-1.5,0.2-2.8,0.7-3.8c0.5-1,1.1-1.8,1.9-2.3C13.2,0.3,14.1,0,15.1,0c1.2,0,2.2,0.4,2.9,1.3S19,3.4,19,4.9c0,2.2-0.5,4.6-1.4,7.1
		c1,0.2,2.2,0.3,3.4,0.3C21.5,12.3,21.8,12.4,22,12.6z M14.5,10.8c0.7-2.1,1.1-3.9,1.1-5.3c0-0.8-0.1-1.4-0.3-1.7
		c-0.2-0.4-0.5-0.6-0.9-0.6c-0.5,0-0.9,0.3-1.3,0.9c-0.3,0.6-0.5,1.4-0.5,2.5C12.7,8.5,13.3,9.9,14.5,10.8z"/>
</g>
</svg>
